<?xml version="1.0" encoding="utf-8"?>
<!-- Generator: Adobe Illustrator 23.0.2, SVG Export Plug-In . SVG Version: 6.00 Build 0)  -->
<svg version="1.1" id="Layer_13" xmlns="http://www.w3.org/2000/svg" xmlns:xlink="http://www.w3.org/1999/xlink" x="0px" y="0px"
	 viewBox="0 0 20 20" style="enable-background:new 0 0 20 20;" xml:space="preserve">
<g>
	<path d="M12.63,10.17c0.64,0.28,1.2,0.73,1.68,1.33c0.48,0.61,0.72,1.42,0.72,2.45c0,0.75-0.18,1.44-0.55,2.08
		c-0.37,0.64-0.93,1.16-1.69,1.57c-0.76,0.4-1.7,0.6-2.8,0.6H9.92V20H9.23v-1.84c-1.42-0.13-2.58-0.6-3.47-1.4
		c-0.9-0.8-1.4-1.79-1.5-2.97h2.17c0.06,0.63,0.33,1.21,0.82,1.76c0.49,0.55,1.15,0.88,1.98,1.02v-5.73
		c-1.15-0.34-2.04-0.65-2.68-0.93S5.37,9.2,4.9,8.6C4.43,8,4.19,7.21,4.19,6.21c0-0.82,0.21-1.55,0.63-2.17
		c0.42-0.63,1.01-1.11,1.77-1.46s1.64-0.52,2.64-0.52V0.14h0.69v1.95c1.39,0.1,2.49,0.53,3.31,1.28c0.82,0.75,1.31,1.65,1.46,2.71
		H12.5C12.39,5.5,12.13,5,11.69,4.55C11.26,4.1,10.67,3.82,9.92,3.7v5.51C11.09,9.56,11.99,9.89,12.63,10.17z M7.11,7.88
		C7.6,8.3,8.3,8.67,9.23,8.98V3.65c-0.87,0-1.56,0.21-2.07,0.64C6.64,4.72,6.39,5.32,6.39,6.12C6.39,6.88,6.63,7.47,7.11,7.88z
		 M12.1,15.88c0.51-0.49,0.76-1.12,0.76-1.88c0-0.79-0.25-1.4-0.76-1.84c-0.51-0.43-1.23-0.8-2.17-1.1v5.55h0.02
		C10.87,16.62,11.59,16.37,12.1,15.88z"/>
</g>
</svg>
