<?xml version="1.0" encoding="utf-8"?>
<!-- Generator: Adobe Illustrator 23.0.2, SVG Export Plug-In . SVG Version: 6.00 Build 0)  -->
<svg version="1.1" id="Layer_10" xmlns="http://www.w3.org/2000/svg" xmlns:xlink="http://www.w3.org/1999/xlink" x="0px" y="0px"
	 viewBox="0 0 20 20" style="enable-background:new 0 0 20 20;" xml:space="preserve">
<path d="M3.7,19.66c-1.3,0-2.36-1.06-2.36-2.36v-6.5H0.07V8.43c0-1.3,1.06-2.36,2.36-2.36h2.89L5.12,5.8C4.72,5.26,4.5,4.64,4.5,4
	c0-1.65,1.34-3,3-3c0.95,0,1.82,0.44,2.4,1.22l0.14,0.18l0.14-0.18C10.75,1.44,11.62,1,12.57,1c1.65,0,3,1.34,3,3
	c0,0.64-0.21,1.27-0.62,1.8l-0.21,0.27h2.89c1.3,0,2.36,1.06,2.36,2.36v2.36h-1.27v6.5c0,1.3-1.06,2.36-2.36,2.36H3.7z M12.4,18.74
	h3.97c0.79,0,1.44-0.64,1.44-1.44v-6.5H12.4V18.74z M8.6,18.74h2.87V7H8.6V18.74z M2.26,17.3c0,0.79,0.64,1.44,1.44,1.44h3.97V10.8
	H2.26V17.3z M12.4,9.87h6.67V8.43c0-0.79-0.64-1.44-1.44-1.44H12.4V9.87z M2.43,7C1.64,7,1,7.64,1,8.43v1.44h6.67V7H2.43z
	 M12.57,1.93c-1.14,0-2.07,0.93-2.07,2.07v2.07h2.07c1.14,0,2.07-0.93,2.07-2.07S13.71,1.93,12.57,1.93z M7.5,1.93
	C6.36,1.93,5.43,2.86,5.43,4S6.36,6.07,7.5,6.07h2.07V4C9.57,2.86,8.64,1.93,7.5,1.93z"/>
</svg>
