<?xml version="1.0" encoding="utf-8"?>
<!-- Generator: Adobe Illustrator 15.0.0, SVG Export Plug-In . SVG Version: 6.00 Build 0)  -->
<!DOCTYPE svg PUBLIC "-//W3C//DTD SVG 1.1//EN" "http://www.w3.org/Graphics/SVG/1.1/DTD/svg11.dtd">
<svg version="1.1" id="Layer_1" xmlns="http://www.w3.org/2000/svg" xmlns:xlink="http://www.w3.org/1999/xlink" x="0px" y="0px"
	 width="612px" height="792px" viewBox="0 0 612 792" enable-background="new 0 0 612 792" xml:space="preserve">
<g id="Layer_1_1_">
	<path d="M304.601,192.99c64.4,0,69.999,0,95.2,0c22.399,0,36.399,5.6,44.799,8.4c11.201,5.6,19.602,8.4,28.001,16.8
		s14.001,16.801,16.8,28c2.8,8.4,8.4,19.6,8.4,44.801c0,25.199,0,33.6,0,95.199c0,64.4,0,70.001,0,95.2
		c0,22.4-5.601,36.399-8.4,44.801c-5.6,11.199-8.4,19.6-16.8,27.999c-8.399,8.4-16.8,14-28.001,16.8
		c-8.399,2.801-19.599,8.4-44.799,8.4c-25.201,0-33.601,0-95.201,0c-64.399,0-69.999,0-95.199,0c-22.4,0-36.4-5.6-44.8-8.4
		c-11.2-5.6-19.601-8.399-28-16.8c-8.4-8.399-14-16.8-16.8-28c-2.801-8.4-8.4-19.6-8.4-44.8c0-25.199,0-33.601,0-95.2
		c0-64.399,0-70,0-95.199c0-22.4,5.6-36.4,8.4-44.801c5.6-11.2,8.399-19.6,16.8-28c8.399-8.4,16.8-14,28-16.8
		c8.399-2.8,19.601-8.4,44.8-8.4C234.601,192.99,243,192.99,304.601,192.99 M304.601,150.99c-64.4,0-72.8,0-98,0s-42,5.6-58.8,11.2
		c-16.801,5.601-28,14-42,28c-14,14-22.4,25.2-28,42c-2.801,14-8.4,33.6-8.4,58.801c0,25.199-2.8,33.6-2.8,97.999
		c0,64.4,0,72.8,2.8,98c0,25.2,5.6,42,11.2,58.801c5.601,16.8,14,28,27.999,41.999c14.001,14,25.201,22.4,42.001,28.001
		c14,5.6,33.601,11.199,58.8,11.199c22.4,0,30.8,0,95.2,0s72.8,0,98-2.8c25.2,0,41.999-5.601,58.8-11.199
		c16.8-5.601,28-14,42-28.001c14-14,22.4-25.199,28-41.999c5.6-14.001,11.2-33.601,11.2-58.801s2.8-33.6,2.8-98
		c0-64.399,0-72.8-2.8-98c0-25.2-5.601-42-11.2-58.8s-14-28-28-42s-25.2-22.4-42-28c-14-5.6-33.6-11.2-58.8-11.2
		C377.4,150.99,369.001,150.99,304.601,150.99"/>
	<path d="M304.601,265.789c-67.2,0-120.399,56.001-120.399,123.2c0,67.201,55.999,123.2,123.199,123.2
		c67.199,0,123.199-55.999,123.199-123.2C427.801,321.79,371.801,265.789,304.601,265.789 M304.601,467.39
		c-44.8,0-78.4-36.4-78.4-78.4c0-44.8,36.4-78.399,78.4-78.399c44.8,0,78.399,36.399,78.399,78.399
		C385.801,430.989,349.4,467.39,304.601,467.39"/>
	<path d="M461.4,260.189c0,16.8-14,28-28,28c-16.8,0-28-14-28-28c0-16.8,14-28,28-28S461.4,246.189,461.4,260.189"/>
</g>
</svg>
