<?xml version="1.0" encoding="utf-8"?>
<!-- Generator: Adobe Illustrator 22.0.1, SVG Export Plug-In . SVG Version: 6.00 Build 0)  -->
<svg version="1.1" id="Layer_1" xmlns="http://www.w3.org/2000/svg" xmlns:xlink="http://www.w3.org/1999/xlink" x="0px" y="0px"
	 viewBox="0 0 612 792" style="enable-background:new 0 0 612 792;" xml:space="preserve">
<path id="LinkedIn_1_" d="M548,418.2v178.1H444.8V430.1c0-41.7-14.9-70.2-52.3-70.2c-28.5,0-45.5,19.2-53,37.8
	c-2.7,6.6-3.4,15.9-3.4,25.2v173.4H232.8c0,0,1.4-281.4,0-310.6h103.3v44c-0.2,0.3-0.5,0.7-0.7,1h0.7v-1
	c13.7-21.1,38.2-51.3,93.1-51.3C497.1,278.4,548,322.8,548,418.2z M124.8,136c-35.3,0-58.4,23.2-58.4,53.7
	c0,29.8,22.4,53.7,57.1,53.7h0.7c36,0,58.4-23.9,58.4-53.7C181.8,159.2,160.1,136,124.8,136z M72.5,596.3h103.2V285.7H72.5V596.3z"
	/>
</svg>
