<?xml version="1.0" encoding="utf-8"?>
<!-- Generator: Adobe Illustrator 22.1.0, SVG Export Plug-In . SVG Version: 6.00 Build 0)  -->
<svg version="1.0" id="Layer_1" xmlns="http://www.w3.org/2000/svg" xmlns:xlink="http://www.w3.org/1999/xlink" x="0px" y="0px"
	 viewBox="0 0 146.8 120.4" style="enable-background:new 0 0 146.8 120.4;" xml:space="preserve">
<title>mc_vrt_rgb_pos</title>
<path d="M124.7,28.9c-12.3-15.6-35-18.3-50.5-6C58.5,10.6,35.9,13.3,23.7,29c-12.3,15.6-9.6,38.3,6.1,50.5
	c13.1,10.3,31.3,10.3,44.4,0.1c6.3,5,14.1,7.6,22.1,7.6c19.9,0,36-16.1,36-36C132.3,43.1,129.6,35.2,124.7,28.9z M74.2,79.4
	c-8.8-6.9-13.9-17.3-13.8-28.2c0-11,5.1-21.5,13.7-28.3c2.3,1.8,4.3,3.8,6.1,6.1C92.5,44.6,89.8,67.2,74.2,79.4z"/>
<g>
	<path d="M129,95.4c-0.9-0.7-2.3-0.9-3.9-0.9c-2.5,0-4.1,1.1-4.1,3c0,1.6,1.1,2.5,3.4,2.7l0.9,0.2c1.1,0.2,1.6,0.5,1.6,0.9
		c0,0.7-0.7,1.1-2.3,1.1c-1.4,0-2.5-0.5-3.2-0.9l-0.9,1.6c1.1,0.9,2.5,1.1,4.1,1.1c2.7,0,4.4-1.4,4.4-3.2c0-1.6-1.4-2.5-3.4-3
		l-0.9-0.2c-0.9-0.2-1.6-0.2-1.6-0.9c0-0.7,0.7-1.1,1.8-1.1s2.5,0.5,3,0.9L129,95.4L129,95.4z M118.9,95.4c-0.9-0.7-2.3-0.9-3.9-0.9
		c-2.5,0-4.1,1.1-4.1,3c0,1.6,1.1,2.5,3.4,2.7l0.9,0.2c1.1,0.2,1.6,0.5,1.6,0.9c0,0.7-0.7,1.1-2.3,1.1c-1.4,0-2.5-0.5-3.2-0.9
		l-0.9,1.6c1.1,0.9,2.5,1.1,4.1,1.1c2.7,0,4.4-1.4,4.4-3.2c0-1.6-1.4-2.5-3.4-3l-0.9-0.2c-0.9-0.2-1.6-0.2-1.6-0.9
		c0-0.7,0.7-1.1,1.8-1.1s2.5,0.5,3,0.9C118,97.2,118.9,95.4,118.9,95.4z M94.9,99.5c0,1.6-1.1,3-3,3c-1.8,0-3-1.4-3-3s1.4-3.2,3-3.2
		C93.7,96.3,94.9,97.7,94.9,99.5z M87.1,99.5v8.2h2.1v-4.6c0.7,0.9,1.6,1.4,3,1.4c2.7,0,4.8-2.1,4.8-5c0-3-2.1-5-4.8-5
		c-1.4,0-2.3,0.5-3,1.4v-1.1h-2.1C87.1,94.7,87.1,99.5,87.1,99.5z M100.8,99.5c0-1.6,1.1-3,3-3c1.8,0,3,1.4,3,3s-1.1,3-3,3
		C101.7,102.5,100.8,101.1,100.8,99.5z M108.6,99.5v-4.8h-2.1v1.1c-0.7-0.9-1.6-1.4-3-1.4c-2.7,0-4.8,2.1-4.8,5c0,3,2.1,5,4.8,5
		c1.4,0,2.3-0.5,3-1.4v1.1h2.1V99.5L108.6,99.5z M38.5,99.5c0-1.6,1.1-3,3-3s3,1.4,3,3s-1.1,3-3,3S38.5,101.1,38.5,99.5z M46.3,99.5
		v-4.8h-2.1v1.1c-0.7-0.9-1.6-1.4-3-1.4c-2.7,0-4.8,2.1-4.8,5c0,3,2.1,5,4.8,5c1.4,0,2.3-0.5,3-1.4v1.1h2.1V99.5L46.3,99.5z
		 M72.4,96.3c1.4,0,2.3,0.9,2.5,2.3h-5C70.1,97.2,71,96.3,72.4,96.3z M72.4,94.5c-2.7,0-4.8,2.1-4.8,5c0,3,2.1,5,5,5
		c1.4,0,2.7-0.5,3.9-1.4l-1.1-1.6c-0.9,0.7-1.8,0.9-2.7,0.9c-1.4,0-2.5-0.7-3-2.3h7.1v-0.9C77,96.5,75.2,94.5,72.4,94.5z M56.9,95.4
		c-0.9-0.7-2.3-0.9-3.9-0.9c-2.5,0-4.1,1.1-4.1,3c0,1.6,1.1,2.5,3.4,2.7l0.9,0.2c1.1,0.2,1.6,0.5,1.6,0.9c0,0.7-0.7,1.1-2.3,1.1
		c-1.4,0-2.5-0.5-3.2-0.9l-0.9,1.6c1.1,0.9,2.5,1.1,4.1,1.1c2.7,0,4.4-1.4,4.4-3.2c0-1.6-1.4-2.5-3.4-3l-0.9-0.2
		c-0.9-0.2-1.6-0.2-1.6-0.9c0-0.7,0.7-1.1,1.8-1.1c1.1,0,2.5,0.5,3,0.9L56.9,95.4L56.9,95.4z M83.9,94.5c-1.1,0-2.1,0.5-2.5,1.4
		v-1.1h-2.1v9.6h2.1v-5.5c0-1.6,0.7-2.5,2.1-2.5c0.5,0,0.9,0,1.4,0.2l0.7-2.1C84.8,94.5,84.3,94.5,83.9,94.5z M66,94.7h-3.4v-3h-2.1
		v3h-2.1v1.8h2.1v4.4c0,2.3,0.9,3.7,3.4,3.7c0.9,0,2.1-0.2,2.5-0.7l-0.7-1.8c-0.7,0.5-1.4,0.5-1.8,0.5c-1.1,0-1.4-0.7-1.4-1.6v-4.4
		H66V94.7L66,94.7z M34.6,104.3v-6c0-2.3-1.4-3.9-3.9-3.9c-1.1,0-2.5,0.5-3.4,1.6c-0.7-1.1-1.6-1.6-3.2-1.6c-0.9,0-2.1,0.2-2.7,1.4
		v-1.1h-2.1v9.6h2.1v-5.3c0-1.6,0.9-2.5,2.3-2.5s2.1,0.9,2.1,2.5v5.3h2.1v-5.3c0-1.6,0.9-2.5,2.3-2.5s2.1,0.9,2.1,2.5v5.3H34.6
		L34.6,104.3z"/>
</g>
</svg>
