<?xml version="1.0" encoding="utf-8"?>
<!-- Generator: Adobe Illustrator 15.0.0, SVG Export Plug-In . SVG Version: 6.00 Build 0)  -->
<!DOCTYPE svg PUBLIC "-//W3C//DTD SVG 1.0//EN" "http://www.w3.org/TR/2001/REC-SVG-20010904/DTD/svg10.dtd">
<svg version="1.0" id="Layer_1" xmlns="http://www.w3.org/2000/svg" xmlns:xlink="http://www.w3.org/1999/xlink" x="0px" y="0px"
	 width="196.667px" height="59.667px" viewBox="-17.5 -27.667 196.667 59.667"
	 enable-background="new -17.5 -27.667 196.667 59.667" xml:space="preserve">
<g>
	<path fill-rule="evenodd" clip-rule="evenodd" d="M61.074,18.267c-7.016,5.178-17.186,7.931-25.944,7.931
		c-12.274,0-23.327-4.537-31.692-12.089c-0.657-0.595-0.071-1.404,0.718-0.945c9.024,5.251,20.185,8.414,31.711,8.414
		c7.775,0,16.323-1.613,24.188-4.95C61.241,16.125,62.235,17.409,61.074,18.267L61.074,18.267z"/>
	<path fill-rule="evenodd" clip-rule="evenodd" d="M63.994,14.934c-0.897-1.148-5.932-0.545-8.193-0.274
		c-0.685,0.083-0.79-0.516-0.174-0.95c4.016-2.821,10.597-2.006,11.361-1.062c0.771,0.953-0.203,7.549-3.965,10.698
		c-0.58,0.483-1.131,0.226-0.874-0.413C62.996,20.818,64.894,16.083,63.994,14.934L63.994,14.934z"/>
	<path fill-rule="evenodd" clip-rule="evenodd" d="M55.96-6.215v-2.741c0.003-0.418,0.317-0.695,0.696-0.694l12.282-0.001
		c0.394,0,0.709,0.285,0.709,0.691v2.352c-0.004,0.395-0.336,0.908-0.925,1.725l-6.363,9.085c2.362-0.055,4.86,0.299,7.007,1.504
		c0.483,0.272,0.612,0.675,0.652,1.07V9.7c0,0.403-0.442,0.869-0.905,0.626c-3.781-1.98-8.798-2.196-12.979,0.025
		c-0.428,0.228-0.874-0.233-0.874-0.635v-2.78c0-0.445,0.009-1.205,0.457-1.884l7.372-10.576h-6.418
		C56.278-5.524,55.963-5.804,55.96-6.215L55.96-6.215z"/>
	<path fill-rule="evenodd" clip-rule="evenodd" d="M11.153,10.903H7.416c-0.356-0.024-0.64-0.291-0.669-0.633L6.75-8.908
		c0-0.384,0.323-0.69,0.722-0.69l3.48-0.002c0.364,0.019,0.656,0.295,0.679,0.645v2.503h0.07c0.907-2.421,2.616-3.552,4.918-3.552
		c2.337,0,3.803,1.131,4.849,3.552c0.907-2.421,2.965-3.552,5.163-3.552c1.57,0,3.279,0.646,4.325,2.099
		c1.186,1.615,0.942,3.955,0.942,6.015l-0.003,12.104c0,0.382-0.322,0.69-0.721,0.69h-3.732c-0.375-0.024-0.67-0.322-0.67-0.689
		L26.771,0.046c0-0.806,0.07-2.824-0.105-3.591c-0.278-1.292-1.115-1.655-2.197-1.655c-0.907,0-1.849,0.604-2.233,1.574
		c-0.383,0.969-0.349,2.583-0.349,3.673v10.167c0,0.382-0.322,0.69-0.72,0.69h-3.733c-0.375-0.024-0.671-0.322-0.671-0.689
		L16.758,0.046c0-2.138,0.349-5.286-2.302-5.286c-2.687,0-2.582,3.065-2.582,5.286l-0.001,10.167
		C11.874,10.595,11.551,10.903,11.153,10.903L11.153,10.903z"/>
	<path fill-rule="evenodd" clip-rule="evenodd" d="M80.256-6.088c-2.754,0-2.93,3.753-2.93,6.094c0,2.341-0.035,7.345,2.896,7.345
		c2.896,0,3.035-4.036,3.035-6.498c0-1.613-0.07-3.551-0.56-5.085C82.28-5.564,81.442-6.088,80.256-6.088L80.256-6.088z
		 M80.223-10.004c5.546,0,8.546,4.764,8.546,10.818c0,5.85-3.313,10.494-8.546,10.494c-5.442,0-8.408-4.764-8.408-10.696
		C71.814-5.362,74.815-10.004,80.223-10.004L80.223-10.004z"/>
	<path fill-rule="evenodd" clip-rule="evenodd" d="M95.962,10.903h-3.724c-0.374-0.024-0.67-0.322-0.67-0.689L91.562-8.972
		c0.031-0.352,0.341-0.626,0.718-0.626l3.466-0.002c0.327,0.018,0.597,0.24,0.664,0.538v2.933h0.071
		c1.047-2.625,2.511-3.875,5.092-3.875c1.675,0,3.314,0.605,4.361,2.261c0.977,1.533,0.977,4.116,0.977,5.973V10.3
		c-0.042,0.34-0.347,0.604-0.717,0.604h-3.745c-0.347-0.022-0.625-0.277-0.666-0.604V-0.115c0-2.099,0.245-5.166-2.337-5.166
		c-0.907,0-1.744,0.605-2.162,1.532c-0.524,1.172-0.594,2.341-0.594,3.634v10.328C96.683,10.595,96.36,10.903,95.962,10.903
		L95.962,10.903z"/>
	<path fill-rule="evenodd" clip-rule="evenodd" d="M49.935,10.854c-0.246,0.223-0.604,0.238-0.881,0.088
		c-1.241-1.032-1.464-1.508-2.143-2.49c-2.052,2.089-3.504,2.717-6.161,2.717c-3.146,0-5.594-1.942-5.594-5.825
		c0-3.034,1.644-5.096,3.986-6.107c2.026-0.89,4.859-1.053,7.028-1.296v-0.484c0-0.892,0.068-1.942-0.456-2.71
		c-0.455-0.688-1.328-0.972-2.098-0.972c-1.425,0-2.692,0.73-3.004,2.245c-0.065,0.336-0.311,0.669-0.649,0.688l-3.621-0.394
		c-0.307-0.069-0.646-0.314-0.558-0.781c0.821-4.334,4.691-5.684,8.208-5.721h0.277c1.8,0.022,4.1,0.516,5.5,1.86
		c1.817,1.699,1.643,3.964,1.643,6.432v5.821c0,1.753,0.728,2.521,1.411,3.464c0.238,0.341,0.292,0.745-0.013,0.994
		c-0.764,0.64-2.12,1.818-2.865,2.482L49.935,10.854L49.935,10.854z M46.17,1.743c0,1.457,0.032,2.669-0.701,3.965
		c-0.594,1.051-1.538,1.699-2.587,1.699c-1.434,0-2.271-1.093-2.271-2.711c0-3.183,2.854-3.761,5.56-3.761V1.743L46.17,1.743z"/>
	<path fill-rule="evenodd" clip-rule="evenodd" d="M0.946,10.854c-0.247,0.223-0.604,0.238-0.883,0.088
		C-1.178,9.91-1.4,9.435-2.078,8.452c-2.052,2.089-3.504,2.717-6.162,2.717c-3.146,0-5.593-1.942-5.593-5.825
		c0-3.034,1.643-5.096,3.985-6.107c2.027-0.89,4.859-1.053,7.026-1.296v-0.484c0-0.892,0.071-1.942-0.454-2.71
		C-3.73-5.942-4.604-6.226-5.373-6.226c-1.425,0-2.693,0.73-3.003,2.245c-0.065,0.336-0.311,0.669-0.649,0.688l-3.622-0.394
		c-0.307-0.069-0.646-0.314-0.558-0.781c0.821-4.334,4.69-5.684,8.208-5.721h0.277c1.8,0.022,4.1,0.516,5.5,1.86
		C2.597-6.63,2.423-4.364,2.423-1.896v5.821c0,1.753,0.728,2.521,1.41,3.464c0.238,0.341,0.292,0.745-0.011,0.994
		c-0.764,0.64-2.121,1.818-2.867,2.482L0.946,10.854L0.946,10.854z M-2.822,1.743c0,1.457,0.036,2.669-0.699,3.965
		c-0.594,1.051-1.538,1.699-2.587,1.699c-1.433,0-2.272-1.093-2.272-2.711c0-3.183,2.855-3.761,5.558-3.761V1.743L-2.822,1.743z"/>
	<path fill-rule="evenodd" clip-rule="evenodd" d="M157.994,17.784c0-0.486,0-0.923,0-1.409c0-0.402,0.197-0.678,0.616-0.653
		c0.781,0.111,1.886,0.22,2.669,0.06c1.024-0.213,1.758-0.939,2.193-1.933c0.612-1.401,1.018-2.529,1.273-3.271l-7.774-19.259
		c-0.132-0.326-0.17-0.933,0.482-0.933h2.717c0.52,0,0.729,0.33,0.846,0.651l5.636,15.645l5.382-15.645
		c0.11-0.319,0.329-0.651,0.844-0.651h2.563c0.648,0,0.612,0.605,0.483,0.933l-7.711,19.86c-0.999,2.645-2.329,6.855-5.322,7.586
		c-1.502,0.393-3.395,0.25-4.507-0.216C158.103,18.409,157.994,18.032,157.994,17.784L157.994,17.784z"/>
	<path fill-rule="evenodd" clip-rule="evenodd" d="M154.37,9.729c0,0.358-0.295,0.652-0.654,0.652H151.8
		c-0.414,0-0.698-0.299-0.749-0.652l-0.193-1.305c-0.881,0.746-1.962,1.4-3.135,1.857c-2.253,0.876-4.852,1.021-7.054-0.332
		c-1.593-0.978-2.438-2.89-2.438-4.86c0-1.525,0.471-3.037,1.512-4.136c1.392-1.5,3.406-2.236,5.841-2.236
		c1.47,0,3.572,0.173,5.104,0.673v-2.625c0-2.669-1.123-3.825-4.087-3.825c-2.266,0-3.997,0.342-6.408,1.091
		c-0.387,0.014-0.612-0.28-0.612-0.639v-1.496c0-0.36,0.308-0.707,0.639-0.813c1.722-0.75,4.161-1.217,6.754-1.304
		c3.381,0,7.398,0.762,7.398,5.961V9.729L154.37,9.729z M150.687,5.896V1.935c-1.286-0.35-3.415-0.496-4.238-0.496
		c-1.303,0-2.727,0.307-3.471,1.108c-0.557,0.587-0.808,1.431-0.808,2.246c0,1.054,0.364,2.11,1.216,2.634
		c0.99,0.671,2.524,0.59,3.968,0.181C148.738,7.213,150.039,6.518,150.687,5.896L150.687,5.896z"/>
	<path fill-rule="evenodd" clip-rule="evenodd" d="M126.112-7.001c4.251,0,5.411,3.343,5.411,7.172
		c0.022,2.582-0.451,4.882-1.788,6.2c-1,0.987-2.118,1.254-3.799,1.254c-1.497,0-3.466-0.78-4.938-1.866V-5.188
		C122.53-6.364,124.484-7.001,126.112-7.001L126.112-7.001z M120.347,18.471h-2.567c-0.358,0-0.652-0.293-0.652-0.651
		c0-8.917,0-17.832,0-26.748c0-0.358,0.294-0.651,0.652-0.651h1.965c0.413,0,0.696,0.298,0.749,0.651l0.206,1.401
		c1.84-1.634,4.209-2.681,6.467-2.681c6.322,0,8.401,5.209,8.401,10.625c0,5.795-3.18,10.454-8.559,10.454
		c-2.265,0-4.382-0.836-6.01-2.289v9.237C120.999,18.178,120.705,18.471,120.347,18.471L120.347,18.471z"/>
</g>
</svg>
