<?xml version="1.0" encoding="utf-8"?>
<!-- Generator: Adobe Illustrator 22.1.0, SVG Export Plug-In . SVG Version: 6.00 Build 0)  -->
<svg version="1.0" id="Layer_1" xmlns="http://www.w3.org/2000/svg" xmlns:xlink="http://www.w3.org/1999/xlink" x="0px" y="0px"
	 viewBox="0 0 192.8 192.8" style="enable-background:new 0 0 192.8 192.8;" xml:space="preserve">
<g>
	<path d="M58.7,139.6c0-2-1.6-3.6-3.6-3.6c-2,0-3.6,1.6-3.6,3.6c0,2,1.6,3.6,3.6,3.6C57.1,143.1,58.7,141.6,58.7,139.6z"/>
	<path d="M171,84.7c0-3.5-1.4-6.6-3.8-8.8c-1.7-1.5-4.8-3.3-9.9-3.3h-36.5c1.5-8.3,3.1-19,3.2-19.6c0.1-0.4,0.1-0.8,0-1.3
		c-0.7-10.9-7.6-23.8-7.9-24.4c-0.6-1.2-1.7-2.2-2.9-2.7c-2.6-1.1-5.2-1.6-7.6-1.6c-5.1,0-8.9,2.5-10.6,4.7
		c-0.8,1.1-1.3,2.4-1.3,3.8c0,0.1,0.4,14,0.4,18.3c-1.8,5.2-16.6,29-20,32c-1.2,1-3,2.3-5,3.6c-1-1.8-2.9-3-5.1-3H22.9
		c-1.6,0-3.2,0.7-4.3,1.9c-1.1,1.2-1.7,2.8-1.6,4.5l4.8,60.7c0.2,3.1,2.8,5.5,5.9,5.5H64c3.3,0,5.9-2.7,5.9-5.9v-3.2h3.8
		c0.5,0.2,1.3,0.8,1.9,1.2c2.4,1.5,5.6,3.6,9.6,3.6h54.2c10.9,0,18.2-8.4,18.2-16.2c0-1.8-0.4-3.5-1.1-5c3.5-3.1,5.5-7.4,5.5-11.5
		c0-1.8-0.4-3.5-1-5c3.5-3.1,5.5-7.4,5.5-11.5c0-1.8-0.4-3.5-1.1-5C169,93.1,171,88.9,171,84.7z M64,149H27.7l-4.8-60.6H64V149z
		 M152.8,95c13,0,8.5,16.5-4.4,16.5c13,0,8.5,16.5-4.5,16.5c13,0,8.5,16.5-4.5,16.5c-6.8,0-34.8,0-54.2,0c-4.2,0-8-4.8-11.1-4.8
		c-1.6,0-3,0-4.2,0V92c3-1.9,6.1-4,8.1-5.7c4.3-3.7,22-32.3,22-35.9c0-3.6-0.4-19.1-0.4-19.1s1.9-2.4,5.9-2.4c1.5,0,3.2,0.3,5.3,1.2
		c0,0,6.5,12.3,7.2,22c0,0-2.9,20.1-4.5,26.4c0,0,34.9,0,43.7,0C170.3,78.5,165.8,95,152.8,95z"/>
</g>
</svg>
