<?xml version="1.0" encoding="utf-8"?>
<!-- Generator: Adobe Illustrator 22.1.0, SVG Export Plug-In . SVG Version: 6.00 Build 0)  -->
<svg version="1.0" id="Layer_1" xmlns="http://www.w3.org/2000/svg" xmlns:xlink="http://www.w3.org/1999/xlink" x="0px" y="0px"
	 viewBox="0 0 48 27.8" style="enable-background:new 0 0 48 27.8;" xml:space="preserve">
<title>acc/global/mp_mark_ver_blk</title>
<desc>Created with Sketch.</desc>
<g>
	<polygon points="20.5,14.3 22.7,1.6 19.2,1.6 17.1,14.3 	"/>
	<path d="M26.6,14.6c3.7,0,6-1.7,6-4.4c0-1.5-0.9-2.6-2.9-3.5c-1.2-0.6-2-1-1.9-1.6c0-0.5,0.6-1.1,2-1.1c1.1,0,2,0.2,2.6,0.5
		l0.3,0.1l0.5-2.8c-0.7-0.3-1.8-0.5-3.1-0.5c-3.4,0-5.8,1.7-5.9,4.2c0,1.8,1.7,2.9,3,3.5c1.4,0.6,1.8,1,1.8,1.6
		c0,0.9-1.1,1.2-2.1,1.2c-1.4,0-2.1-0.2-3.3-0.7L23.2,11l-0.5,2.9C23.5,14.3,25,14.6,26.6,14.6z"/>
	<path d="M41.5,14.4h3.2L42,1.6h-2.7c-0.8,0-1.5,0.2-1.8,1.1l-5.2,11.7H36c0,0,0.6-1.6,0.7-1.9c0.4,0,3.9,0,4.4,0
		C41.2,12.9,41.5,14.4,41.5,14.4z M37.7,9.8c0.3-0.7,1.4-3.6,1.4-3.6s0.3-0.7,0.5-1.2l0.2,1.1c0,0,0.7,3,0.8,3.7H37.7z"/>
	<path d="M8.7,14.4h3.7l5.5-12.7h-3.8V1.6l-3.4,8.7l-0.4-1.8L9.2,2.7C9,1.9,8.3,1.6,7.6,1.6H2v0.3c1.4,0.3,2.6,0.8,3.6,1.4L8.7,14.4
		z"/>
	<path d="M5.3,19.6c0.7,0,1.2,0.1,1.4,0.3l0.5-1.4c-0.2-0.1-0.9-0.3-1.7-0.3c-1.1,0-2.1,0.3-2.9,0.8c-1.2,0.8-2,2.2-2,3.9
		C0.6,25,2,26.2,4,26.2c0.9,0,1.6-0.2,2.1-0.3L6,24.5c-0.4,0.2-0.9,0.3-1.5,0.3c-1.4,0-2.1-0.8-2.1-2.1c0-1.1,0.4-2,1.1-2.5
		C3.9,19.8,4.6,19.6,5.3,19.6z"/>
	<path d="M11.4,20.3c-0.8,0-1.3,0.3-1.8,0.9l0,0l0.6-3.3H8.5l-1.6,8.2h1.7l0.5-2.6c0.2-1.1,0.8-1.9,1.4-1.9c0.4,0,0.6,0.3,0.6,0.6
		c0,0.2,0,0.5-0.1,0.7l-0.6,3.1h1.7l0.6-3.3c0.1-0.3,0.1-0.8,0.1-1C12.8,20.8,12.2,20.3,11.4,20.3z"/>
	<path d="M16.9,20.3c-2.1,0-3.3,1.8-3.3,3.5c0,1.5,0.8,2.4,2.5,2.4c0.6,0,1.5-0.1,2.1-0.4l-0.1-1.2c-0.5,0.2-1,0.4-1.6,0.4
		c-0.5,0-0.9-0.2-1.1-0.4c-0.1-0.2-0.2-0.4-0.2-0.6c2.3,0.1,3.7-0.5,3.7-1.9C18.9,20.9,18.1,20.3,16.9,20.3z M15.4,22.7
		c0.1-0.5,0.6-1.2,1.3-1.2c0.4,0,0.6,0.2,0.6,0.5C17.3,22.5,16.7,22.7,15.4,22.7z"/>
	<path d="M19.5,23.9c0,1.5,1,2.3,2.4,2.3c0.7,0,1.3-0.1,1.6-0.3l0-1.3c-0.3,0.1-0.6,0.2-1.1,0.2c-0.6,0-1.1-0.4-1.1-1.2
		c0-1.1,0.7-2.1,1.9-2.1c0.3,0,0.6,0.1,0.8,0.1l0.4-1.3c-0.2-0.1-0.7-0.2-1.1-0.2C21.1,20.3,19.5,21.9,19.5,23.9z"/>
	<path d="M30.7,20.4h-2.1l-1.5,1.7c-0.2,0.2-0.3,0.4-0.5,0.7h0l0.9-4.9h-1.7l-1.6,8.2H26l0.3-1.8l0.6-0.6l1,2.4h1.9l-1.6-3.3
		L30.7,20.4z"/>
	<path d="M33.8,20.3c-2,0-3.4,1.6-3.4,3.6c0,1.4,1,2.3,2.4,2.3c2,0,3.4-1.5,3.4-3.6C36.2,21.3,35.4,20.3,33.8,20.3z M33.1,24.9
		c-0.6,0-0.9-0.4-0.9-1.1c0-0.9,0.5-2.3,1.4-2.3c0.7,0,0.9,0.6,0.9,1.1C34.5,23.6,34,24.9,33.1,24.9z"/>
	<path d="M40.7,23c-0.2,1.1-0.8,1.8-1.4,1.8c-0.4,0-0.6-0.3-0.6-0.7c0-0.2,0-0.5,0.1-0.7l0.6-3h-1.7l-0.6,3.2
		c-0.1,0.4-0.1,0.7-0.1,1c0,1.1,0.5,1.6,1.5,1.6c0.7,0,1.4-0.3,2-1.1h0l-0.1,0.9h1.5c0.1-0.5,0.2-1.1,0.3-1.8l0.7-3.8h-1.7L40.7,23z
		"/>
	<path d="M45.9,21.7h1.2l0.2-1.3h-1.2l0.3-1.6l-1.7,0.4l-0.2,1.2h-0.7l-0.2,1.3h0.7l-0.4,2.3c-0.1,0.4-0.1,0.7-0.1,1.1
		c0,0.7,0.5,1.2,1.5,1.2c0.4,0,0.8,0,1-0.1l0.2-1.3c-0.2,0-0.3,0-0.5,0c-0.4,0-0.5-0.2-0.5-0.5c0-0.2,0-0.5,0.1-0.7L45.9,21.7z"/>
</g>
</svg>
