<?xml version="1.0" encoding="utf-8"?>
<!-- Generator: Adobe Illustrator 22.1.0, SVG Export Plug-In . SVG Version: 6.00 Build 0)  -->
<svg version="1.0" id="Layer_1" xmlns="http://www.w3.org/2000/svg" xmlns:xlink="http://www.w3.org/1999/xlink" x="0px" y="0px"
	 viewBox="0 0 146.8 120.4" style="enable-background:new 0 0 146.8 120.4;" xml:space="preserve">
<title>mc_vrt_rgb_pos</title>
<g>
	<path d="M85.2,95.5c-1,0-2,0.5-2.5,1.4v-1.2h-2.1v9.6h2.1v-5.4c0-1.6,0.7-2.5,2-2.5c0.4,0,0.9,0.1,1.3,0.2l0.6-2
		C86.1,95.5,85.6,95.4,85.2,95.5L85.2,95.5z"/>
	<path d="M73.9,95.5L73.9,95.5c-2.8,0-5,2.3-5,5c0,2.8,2.3,5,5.1,4.9c1.4,0.1,2.9-0.4,4-1.3l-1-1.5c-0.8,0.6-1.8,1-2.8,1
		c-1.4,0.1-2.7-0.9-2.9-2.3h7.1c0-0.3,0-0.5,0-0.8C78.5,97.5,76.6,95.5,73.9,95.5z M76.3,99.6h-5c0.1-1.3,1.2-2.4,2.5-2.3h0
		C75.2,97.3,76.3,98.3,76.3,99.6C76.3,99.6,76.3,99.6,76.3,99.6z"/>
	<path d="M55.2,99.5l-1-0.1c-0.9-0.1-1.6-0.3-1.6-0.9c0-0.6,0.7-1.1,1.8-1.1c1.1,0,2.1,0.3,3,0.8l0.9-1.7c-1.2-0.7-2.5-1-3.9-1
		c-2.4,0-4,1.2-4,3.1c0,1.6,1.2,2.5,3.3,2.8l1,0.1c1.1,0.2,1.7,0.5,1.7,1c0,0.7-0.8,1.2-2.2,1.2c-1.1,0-2.3-0.3-3.2-1l-1,1.6
		c1.2,0.8,2.7,1.3,4.1,1.2c2.8,0,4.4-1.3,4.4-3.1S57.3,99.8,55.2,99.5z"/>
	<path d="M92.3,97.4c0.9,0,1.8,0.3,2.5,0.9l1-1.7c-1-0.8-2.2-1.2-3.4-1.1c-2.7-0.2-4.9,1.9-5.1,4.5c0,0.2,0,0.3,0,0.5v0
		c-0.1,2.7,2,4.9,4.6,5c0.2,0,0.3,0,0.5,0c1.2,0.1,2.5-0.3,3.4-1.1l-1-1.7c-0.7,0.5-1.6,0.8-2.5,0.9c-1.7-0.1-2.9-1.6-2.8-3.3
		C89.6,98.7,90.8,97.5,92.3,97.4z"/>
	<path d="M46,96.9c-0.7-0.9-1.8-1.4-3-1.4c-2.8,0-5,2.2-5,5s2.2,5,5,5c1.2,0,2.3-0.5,3-1.4v1.2h2.1v-4.7v-4.8H46V96.9z M43.2,103.5
		c-1.6,0-2.9-1.2-2.9-2.8c0-0.1,0-0.2,0-0.2h0c0.1-1.6,1.5-2.8,3.1-2.7s2.8,1.5,2.7,3.1C46,102.3,44.8,103.5,43.2,103.5z"/>
	<path d="M65.4,103.6c-1,0-1.4-0.6-1.4-1.6v-4.4h3.4l0-1.9H64v-2.9h-2.1v2.9H60v1.9h1.9v4.4c0,2.2,0.9,3.5,3.3,3.5
		c0.9,0,1.8-0.3,2.6-0.7l-0.6-1.8C66.7,103.4,66.1,103.5,65.4,103.6z"/>
	<path d="M33,95.5c-0.2,0-0.3,0-0.5,0c-1.3-0.1-2.6,0.6-3.4,1.7c-0.7-1.1-1.9-1.8-3.2-1.7c-1.1-0.1-2.2,0.5-2.8,1.4v-1.2h-2.1v9.6
		h2.1V100c-0.2-1.2,0.7-2.4,1.9-2.5c0.1,0,0.3,0,0.4,0c1.4,0,2.1,0.9,2.1,2.5v5.3h2.1V100c-0.2-1.2,0.7-2.4,1.9-2.5
		c0.1,0,0.3,0,0.4,0c1.4,0,2.1,0.9,2.1,2.5v5.3l2.1,0v-6C36.5,97.3,35,95.6,33,95.5z"/>
	<path d="M129.8,104.8c0,0,0.1-0.1,0.1-0.2c0-0.1,0-0.2-0.1-0.2c-0.1-0.1-0.2-0.1-0.3-0.1l-0.4,0v0.9h0.2v-0.3h0.1l0.3,0.3h0.2
		l-0.3-0.3C129.7,104.9,129.8,104.9,129.8,104.8z M129.3,104.8v-0.2l0.2,0.1c0,0,0.1,0,0.1,0c0,0,0,0.1,0,0.1c0,0,0,0.1,0,0.1
		c0,0-0.1,0-0.1,0H129.3z"/>
	<path d="M129.5,103.9C129.5,103.9,129.5,103.9,129.5,103.9C129.5,103.9,129.5,103.9,129.5,103.9L129.5,103.9z"/>
	<path d="M104.7,96.9c-0.7-0.9-1.8-1.4-3-1.4c-2.8,0-5,2.2-5,5s2.2,5,5,5c1.2,0,2.3-0.5,3-1.4v1.2h2.1v-4.8v-4.8h-2.1V96.9z
		 M101.9,103.5c-1.6,0-2.9-1.2-2.9-2.8c0-0.1,0-0.2,0-0.2c0.1-1.6,1.5-2.8,3.1-2.7c1.6,0.1,2.8,1.5,2.7,3.1
		C104.7,102.3,103.4,103.5,101.9,103.5z"/>
	<path d="M130.2,104.1c-0.1-0.1-0.2-0.2-0.3-0.2c-0.1,0-0.2-0.1-0.4-0.1c-0.1,0-0.3,0-0.4,0.1c-0.1,0-0.2,0.1-0.3,0.2
		c-0.1,0.1-0.2,0.2-0.2,0.3c-0.1,0.2-0.1,0.5,0,0.7c0.2,0.4,0.5,0.6,0.9,0.6c0.1,0,0.3,0,0.4-0.1c0.1,0,0.2-0.1,0.3-0.2
		c0.1-0.1,0.2-0.2,0.2-0.3c0.1-0.2,0.1-0.5,0-0.7C130.3,104.3,130.2,104.2,130.2,104.1z M130,105.3c-0.1,0.1-0.1,0.1-0.2,0.2
		c-0.1,0-0.2,0.1-0.3,0.1c-0.1,0-0.2,0-0.3-0.1c-0.1,0-0.2-0.1-0.2-0.2c-0.3-0.3-0.3-0.7,0-1c0.1-0.1,0.2-0.1,0.2-0.2
		c0.1,0,0.2-0.1,0.3-0.1c0.1,0,0.2,0,0.3,0.1c0.1,0,0.2,0.1,0.2,0.2C130.2,104.6,130.2,105.1,130,105.3z"/>
	<path d="M114,95.5c-1,0-2,0.5-2.5,1.4v-1.2h-2.1v9.6h2.1v-5.4c0-1.6,0.7-2.5,2-2.5c0.4,0,0.9,0.1,1.3,0.2l0.6-2
		C115,95.5,114.5,95.4,114,95.5L114,95.5z"/>
	<path d="M124,96.9c-0.7-0.9-1.8-1.4-3-1.4c-2.8,0-5,2.2-5,5s2.2,5,5,5c1.2,0,2.3-0.5,3-1.4v1.2h2v-4.7v-8.6h-2V96.9z M121.2,103.5
		c-1.6,0-2.9-1.2-2.9-2.8c0-0.1,0-0.2,0-0.2c0.1-1.6,1.5-2.8,3.1-2.7c1.6,0.1,2.8,1.5,2.7,3.1C124,102.3,122.7,103.5,121.2,103.5z"
		/>
	<path d="M59.7,51.2c0-11,5.1-21.5,13.8-28.3c-15.6-12.3-38.3-9.6-50.5,6.1c-12.3,15.6-9.6,38.3,6.1,50.5
		c13.1,10.3,31.4,10.3,44.5,0C64.7,72.6,59.6,62.2,59.7,51.2z"/>
	<path d="M124,28.9C111.7,13.3,89,10.6,73.4,22.9c2.3,1.8,4.3,3.8,6.1,6.1c12.3,15.6,9.6,38.3-6.1,50.5c6.3,5,14.2,7.7,22.2,7.7
		c19.9,0,36-16.1,36-36v0C131.6,43.1,128.9,35.2,124,28.9z"/>
</g>
</svg>
