<?xml version="1.0" encoding="utf-8"?>
<!-- Generator: Adobe Illustrator 15.0.0, SVG Export Plug-In . SVG Version: 6.00 Build 0)  -->
<!DOCTYPE svg PUBLIC "-//W3C//DTD SVG 1.0//EN" "http://www.w3.org/TR/2001/REC-SVG-20010904/DTD/svg10.dtd">
<svg version="1.0" id="Layer_1" xmlns="http://www.w3.org/2000/svg" xmlns:xlink="http://www.w3.org/1999/xlink" x="0px" y="0px"
	 width="73.334px" height="36.667px" viewBox="0 -4.667 73.334 36.667" enable-background="new 0 -4.667 73.334 36.667"
	 xml:space="preserve">
<g>
	<path d="M19.059,2.208c1.121-1.354,1.871-3.242,1.669-5.13c-1.604,0.073-3.557,1.081-4.71,2.436
		c-1.042,1.202-1.944,3.13-1.71,4.969C16.106,4.62,17.938,3.563,19.059,2.208z"/>
	<path d="M23.107,14.161c-0.04-4.072,3.308-6.024,3.453-6.121c-1.888-2.767-4.815-3.146-5.857-3.187
		c-2.492-0.258-4.863,1.468-6.129,1.468c-1.259,0-3.218-1.436-5.283-1.395C6.572,4.967,4.064,6.507,2.667,8.951
		c-2.822,4.92-0.725,12.204,2.034,16.19c1.339,1.949,2.944,4.146,5.049,4.063c2.024-0.08,2.791-1.313,5.242-1.313
		c2.453,0,3.138,1.313,5.284,1.273c2.178-0.04,3.557-1.983,4.896-3.943c1.542-2.259,2.178-4.453,2.234-4.559
		C27.35,20.638,23.148,19.026,23.107,14.161z"/>
	<path d="M42.177,5.889c-1.192-1.073-3.068-1.668-5.632-1.668c-2.084,0-3.723,0.179-4.975,0.387v19.839h2.593v-8.042
		c0.595,0.147,1.31,0.18,2.087,0.18c2.528,0,4.734-0.746,6.134-2.204c1.014-1.044,1.548-2.473,1.548-4.291
		C43.932,8.302,43.248,6.843,42.177,5.889z M36.306,14.497c-0.862,0-1.577-0.06-2.143-0.208V6.485
		c0.445-0.119,1.31-0.209,2.443-0.209c2.828,0,4.735,1.281,4.735,3.963C41.342,12.949,39.435,14.497,36.306,14.497z"/>
	<path d="M56.691,15.6c0-2.859-1.073-5.868-5.482-5.868c-1.817,0-3.572,0.507-4.766,1.252l0.596,1.757
		c1.015-0.686,2.414-1.073,3.784-1.073c2.949-0.03,3.276,2.145,3.276,3.306v0.298c-5.57-0.03-8.668,1.876-8.668,5.362
		c0,2.084,1.489,4.141,4.406,4.141c2.058,0,3.608-1.015,4.41-2.145h0.09l0.209,1.816h2.352c-0.147-0.982-0.207-2.204-0.207-3.456
		V15.6z M54.158,19.592c0,0.236-0.028,0.534-0.119,0.832c-0.418,1.223-1.638,2.414-3.542,2.414c-1.313,0-2.443-0.775-2.443-2.502
		c0-2.798,3.245-3.306,6.104-3.248V19.592z"/>
	<path d="M69.563,10.03l-2.858,8.46c-0.358,1.042-0.655,2.144-0.923,3.008h-0.06c-0.238-0.864-0.597-1.996-0.953-2.948l-3.126-8.52
		h-2.86l5.302,13.283c0.148,0.328,0.209,0.538,0.209,0.688c0,0.146-0.09,0.356-0.209,0.626c-0.625,1.338-1.488,2.353-2.203,2.918
		c-0.776,0.654-1.641,1.07-2.295,1.28L60.241,31c0.655-0.119,1.907-0.565,3.219-1.67c1.788-1.578,3.067-4.078,4.942-9.024
		l3.932-10.276H69.563z"/>
</g>
</svg>
