<?xml version="1.0" encoding="utf-8"?>
<!-- Generator: Adobe Illustrator 22.1.0, SVG Export Plug-In . SVG Version: 6.00 Build 0)  -->
<svg version="1.0" id="Layer_1" xmlns="http://www.w3.org/2000/svg" xmlns:xlink="http://www.w3.org/1999/xlink" x="0px" y="0px"
	 viewBox="0 0 48 27.8" style="enable-background:new 0 0 48 27.8;" xml:space="preserve">
<title>acc/global/mp_mark_ver_blk</title>
<desc>Created with Sketch.</desc>
<g>
	<path d="M25.1,5.6h-3.7v13.6h2v-5h1.7c2.4,0,4.3-1.4,4.3-4.4C29.4,6.6,27.6,5.6,25.1,5.6z M25,12.3h-1.6V7.5H25
		c1.7,0,2.5,0.6,2.5,2.3S26.7,12.3,25,12.3z"/>
	<path d="M34.5,8.8c-1.5,0-2.9,0.7-3.9,1.4l0.7,1.6c0.9-0.6,1.8-1.1,2.8-1.1c1.4,0,1.9,0.8,2,2c-4.2,0.4-5.9,1.5-5.9,3.8
		c0,1.7,1.2,3,2.8,2.9c1.2,0,2.3-0.7,3.2-1.5h0.1l0.2,1.3h1.6v-6C38.1,10.4,36.8,8.8,34.5,8.8z M36.1,16.3c-0.8,0.8-1.6,1.3-2.5,1.2
		c-0.8,0-1.5-0.4-1.5-1.3c0-1.1,0.9-1.9,4-2.1V16.3z"/>
	<path d="M45.7,9l-1.5,5c-0.2,1-0.5,2-0.8,3h-0.1c-0.3-1-0.6-2.1-0.9-3l-1.7-5h-2l3.9,10.1l-0.2,0.6c-0.4,1.1-1,1.8-2.1,1.8
		c-0.2,0-0.5,0-0.7-0.1l-0.4,1.8c0.3,0.1,0.7,0.2,1.1,0.2c2.1,0,3.1-1.4,3.8-3.7L47.6,9H45.7z"/>
	<path d="M6.5,9c3.2,0,6.4,0,9.6,0c0.1,0,0.2,0,0.4,0c-0.1-0.1-0.1-0.2-0.1-0.2c-1.5-1.4-3-2.8-4.5-4.2c-0.2-0.1-0.4-0.2-0.6-0.2
		c-1.5,0-3.1,0-4.6,0c-0.6,0-0.8,0.2-0.8,0.8c0,1.1,0,2.2,0,3.3C5.9,8.9,6.1,9,6.5,9z"/>
	<path d="M16.3,9.9c-1,0-2.1,0-3.2,0c-0.5-0.1-0.6,0.1-0.6,0.5c0,3.2,0,6.4,0,9.6c0,0.1,0,0.2,0,0.4c0.1-0.1,0.2-0.2,0.3-0.2
		c1.4-1.4,2.8-2.9,4.1-4.3c0.1-0.1,0.2-0.4,0.2-0.6c0-1.5,0-3.1,0-4.7C17.1,10,16.9,9.9,16.3,9.9z"/>
	<path d="M11.2,16.4c-3.2,0-6.3,0-9.5,0c-0.1,0-0.3,0-0.5,0c0.1,0.1,0.1,0.2,0.2,0.3c1.5,1.3,2.9,2.7,4.4,4.1
		C5.9,20.9,6.1,21,6.3,21c1.5,0,3.1,0,4.7,0c0.6,0,0.8-0.2,0.8-0.8c0-1.1,0-2.1,0-3.2C11.8,16.4,11.8,16.4,11.2,16.4z"/>
	<path d="M4.5,15.6c0.5,0,0.6-0.2,0.6-0.6c0-3.2,0-6.3,0-9.5c0-0.2,0-0.3,0-0.5C5,5.1,4.9,5.2,4.8,5.3C3.4,6.7,2.1,8.1,0.7,9.6
		C0.6,9.8,0.5,10,0.5,10.2c0,1.5,0,3.1,0,4.7c0,0.5,0.2,0.7,0.7,0.7C2.3,15.6,3.4,15.6,4.5,15.6z"/>
</g>
</svg>
