<?xml version="1.0" encoding="utf-8"?>
<!-- Generator: Adobe Illustrator 23.0.2, SVG Export Plug-In . SVG Version: 6.00 Build 0)  -->
<svg version="1.1" xmlns="http://www.w3.org/2000/svg" xmlns:xlink="http://www.w3.org/1999/xlink" x="0px" y="0px"
	 viewBox="0 0 20 20" style="enable-background:new 0 0 20 20;" xml:space="preserve">
<style type="text/css">
	.st0{display:none;}
	.st1{display:inline;}
	.st2{display:inline;fill-rule:evenodd;clip-rule:evenodd;}
	.st3{fill-rule:evenodd;clip-rule:evenodd;}
</style>
<g id="Layer_1" class="st0">
	<path class="st1" d="M18.28,19.38c-0.21,0-0.42-0.09-0.56-0.24l-4.83-5.16c-1.21,0.86-2.63,1.31-4.12,1.31
		c-1.97,0-3.87-0.82-5.22-2.26C0.85,10.15,1,5.62,3.88,2.93C5.21,1.68,6.94,1,8.76,1c1.97,0,3.87,0.82,5.22,2.26
		c2.57,2.75,2.57,6.94,0.06,9.69l4.8,5.13c0.29,0.31,0.27,0.8-0.04,1.09C18.66,19.31,18.48,19.38,18.28,19.38z M8.76,2.54
		c-1.43,0-2.79,0.54-3.83,1.51C3.84,5.08,3.22,6.46,3.17,7.96c-0.05,1.5,0.49,2.92,1.51,4.02c1.07,1.14,2.52,1.77,4.09,1.77
		c1.43,0,2.79-0.54,3.83-1.51c2.26-2.11,2.37-5.67,0.26-7.92C11.79,3.17,10.33,2.54,8.76,2.54z"/>
</g>
<g id="Layer_2" class="st0">
	<path class="st1" d="M18.37,19.89c-0.15-0.01-0.97-0.01-3.89-0.01c-4.91,0-12.81,0.02-12.88,0.02l-0.08,0v-0.74
		c0-1,0.17-1.98,0.51-2.91c0.33-0.9,0.81-1.73,1.42-2.48c1.18-1.43,2.8-2.44,4.58-2.86c-1.92-0.79-3.19-2.67-3.19-4.76
		C4.86,3.31,7.17,1,10,1c2.84,0,5.15,2.31,5.15,5.15c0,2.09-1.27,3.97-3.19,4.76c1.79,0.42,3.4,1.43,4.58,2.86
		c0.61,0.74,1.09,1.58,1.42,2.48c0.34,0.93,0.51,1.91,0.51,2.91V20L18.37,19.89z M17.16,18.62c-0.12-1.81-0.9-3.48-2.22-4.71
		c-1.33-1.25-3.08-1.93-4.94-1.93c-1.85,0-3.61,0.69-4.94,1.93c-1.31,1.23-2.1,2.9-2.22,4.71L17.16,18.62z M10,2.31
		c-2.12,0-3.84,1.72-3.84,3.84c0,2.12,1.72,3.84,3.84,3.84c2.12,0,3.84-1.72,3.84-3.84C13.84,4.03,12.12,2.31,10,2.31z"/>
</g>
<g id="Layer_3" class="st0">
	<g class="st1">
		<path d="M7.56,19c-1.33,0-2.41-1.08-2.41-2.41c0-1.33,1.08-2.41,2.41-2.41c1.33,0,2.41,1.08,2.41,2.41C9.98,17.92,8.89,19,7.56,19
			z M7.56,15.5c-0.6,0-1.09,0.49-1.09,1.09c0,0.6,0.49,1.09,1.09,1.09c0.6,0,1.09-0.49,1.09-1.09C8.65,15.99,8.17,15.5,7.56,15.5z"
			/>
		<path d="M5.26,16.59c0,1.27,1.03,2.3,2.3,2.3c1.27,0,2.3-1.03,2.3-2.3c0-1.27-1.03-2.3-2.3-2.3C6.29,14.29,5.26,15.32,5.26,16.59z
			 M8.76,16.59c0,0.66-0.54,1.2-1.2,1.2c-0.66,0-1.2-0.54-1.2-1.2c0-0.66,0.54-1.2,1.2-1.2C8.22,15.39,8.76,15.93,8.76,16.59z"/>
		<path d="M15,19c-1.33,0-2.41-1.08-2.41-2.41c0-1.33,1.08-2.41,2.41-2.41c1.33,0,2.41,1.08,2.41,2.41C17.41,17.92,16.33,19,15,19z
			 M15,15.5c-0.6,0-1.09,0.49-1.09,1.09c0,0.6,0.49,1.09,1.09,1.09c0.6,0,1.09-0.49,1.09-1.09C16.09,15.99,15.6,15.5,15,15.5z"/>
		<path d="M12.69,16.59c0,1.27,1.03,2.3,2.3,2.3c1.27,0,2.3-1.03,2.3-2.3c0-1.27-1.03-2.3-2.3-2.3
			C13.73,14.29,12.69,15.32,12.69,16.59z M16.2,16.59c0,0.66-0.54,1.2-1.2,1.2c-0.66,0-1.2-0.54-1.2-1.2c0-0.66,0.54-1.2,1.2-1.2
			C15.66,15.39,16.2,15.93,16.2,16.59z"/>
		<path d="M6.18,13.76c-0.32,0-0.59-0.22-0.65-0.53L3.78,4.21l0-0.05L3.41,2.32H1.66C1.3,2.32,1,2.02,1,1.66C1,1.3,1.3,1,1.66,1h2.3
			c0.34,0,0.63,0.26,0.65,0.6l0.36,1.82h14.05c0.2,0,0.39,0.09,0.51,0.25c0.13,0.16,0.17,0.36,0.13,0.55l-1.97,9.02
			c-0.07,0.3-0.34,0.52-0.64,0.52H6.18z M16.53,12.44l1.68-7.7H5.23l1.5,7.7H16.53z"/>
		<path d="M1.66,2.21H3.5l0.37,1.92c0,0.02,0,0.04,0.01,0.06l1.75,9.01c0.05,0.26,0.28,0.45,0.54,0.45h10.88
			c0.26,0,0.49-0.18,0.54-0.44l1.97-9.02c0.04-0.16,0-0.33-0.11-0.46c-0.1-0.13-0.26-0.21-0.43-0.21H4.89L4.51,1.61
			C4.49,1.33,4.25,1.11,3.96,1.11h-2.3c-0.31,0-0.55,0.25-0.55,0.55C1.11,1.97,1.35,2.21,1.66,2.21z M18.34,4.64l-1.72,7.91H6.64
			L5.1,4.64H18.34z"/>
	</g>
</g>
<g id="Layer_4" class="st0">
	<path class="st2" d="M1,4h19v2H1V4z"/>
	<path class="st2" d="M1,9h19v2H1V9z"/>
	<path class="st2" d="M1,14h19v2H1V14z"/>
</g>
<g id="Layer_5" class="st0">
	<path class="st1" d="M9.71,17.71c-0.09,0.09-0.22,0.09-0.3,0l-9.2-9.2C0.12,8.43,0.12,8.29,0.2,8.21l1.23-1.23
		c0.05-0.05,0.11-0.07,0.16-0.07c0.04,0,0.1,0.01,0.15,0.06l7.83,7.82l7.82-7.82c0.05-0.05,0.11-0.07,0.16-0.07
		c0.04,0,0.1,0.01,0.15,0.06l1.24,1.23c0.08,0.08,0.09,0.22,0.01,0.3L9.71,17.71z"/>
</g>
<g id="Layer_6" class="st0">
	<path class="st1" d="M4.2,10.48c-0.09-0.09-0.09-0.22,0-0.3l9.2-9.2c0.08-0.08,0.22-0.09,0.3-0.01l1.23,1.23
		C14.99,2.25,15,2.31,15,2.36c0,0.04-0.01,0.1-0.06,0.15l-7.82,7.83l7.82,7.82c0.05,0.05,0.07,0.11,0.07,0.16
		c0,0.04-0.01,0.1-0.06,0.15l-1.23,1.24c-0.08,0.08-0.22,0.09-0.3,0.01L4.2,10.48z"/>
</g>
<g id="Layer_6_copy" class="st0">
	<path class="st1" d="M9.43,4.96c0.09-0.09,0.22-0.09,0.3,0l9.2,9.2c0.08,0.08,0.09,0.22,0.01,0.3l-1.23,1.23
		c-0.05,0.05-0.11,0.07-0.16,0.07c-0.04,0-0.1-0.01-0.15-0.06L9.57,7.89l-7.82,7.82c-0.05,0.05-0.11,0.07-0.16,0.07
		c-0.04,0-0.1-0.01-0.15-0.06L0.2,14.48c-0.08-0.08-0.09-0.22-0.01-0.3L9.43,4.96z"/>
</g>
<g id="Layer_6_copy_2" class="st0">
	<path class="st1" d="M14.94,10.2c0.09,0.09,0.09,0.22,0,0.3l-9.2,9.2c-0.08,0.08-0.22,0.09-0.3,0.01l-1.23-1.23
		c-0.05-0.05-0.07-0.11-0.07-0.16c0-0.04,0.01-0.1,0.06-0.15l7.82-7.83L4.2,2.52C4.14,2.46,4.13,2.4,4.13,2.36
		c0-0.04,0.01-0.1,0.06-0.15l1.23-1.24c0.08-0.08,0.22-0.09,0.3-0.01L14.94,10.2z"/>
</g>
<g id="Layer_9">
	<path class="st3" d="M10.66,1l3.06,5.5l6.22,1.18l-4.33,4.58l0.79,6.23l-5.73-2.67L4.92,18.5l0.79-6.23L1.38,7.68L7.6,6.5L10.66,1"
		/>
</g>
</svg>
