<?xml version="1.0" encoding="utf-8"?>
<!-- Generator: Adobe Illustrator 22.0.1, SVG Export Plug-In . SVG Version: 6.00 Build 0)  -->
<svg version="1.1" id="Layer_1" xmlns="http://www.w3.org/2000/svg" xmlns:xlink="http://www.w3.org/1999/xlink" x="0px" y="0px"
	 viewBox="0 0 612 792" style="enable-background:new 0 0 612 792;" xml:space="preserve">
<path id="Twitter_2_" d="M536,251.1c-16.5,7.3-34.2,12.2-52.8,14.5c19-11.4,33.5-29.4,40.4-50.8c-17.8,10.5-37.4,18.2-58.4,22.3
	c-16.8-17.9-40.6-29-67.1-29c-50.7,0-91.9,41.1-91.9,91.9c0,7.2,0.8,14.2,2.4,20.9c-76.4-3.8-144.1-40.4-189.4-96
	c-7.9,13.6-12.4,29.4-12.4,46.2c0,31.9,16.2,60,40.9,76.5c-15.1-0.5-29.2-4.6-41.6-11.5c0,0.4,0,0.8,0,1.1
	c0,44.5,31.7,81.7,73.7,90.1c-7.7,2.1-15.8,3.2-24.2,3.2c-5.9,0-11.7-0.6-17.3-1.6c11.7,36.5,45.6,63.1,85.8,63.8
	C192.7,517.3,153.1,532,110,532c-7.4,0-14.7-0.4-21.9-1.3c40.7,26.1,89,41.3,140.9,41.3c169,0,261.5-140,261.5-261.5
	c0-4-0.1-7.9-0.3-11.9C508.1,285.7,523.7,269.5,536,251.1z"/>
</svg>
