<?xml version="1.0" encoding="utf-8"?>
<!-- Generator: Adobe Illustrator 23.0.2, SVG Export Plug-In . SVG Version: 6.00 Build 0)  -->
<svg version="1.1" id="Layer_11_copy" xmlns="http://www.w3.org/2000/svg" xmlns:xlink="http://www.w3.org/1999/xlink" x="0px"
	 y="0px" viewBox="0 0 20 20" style="enable-background:new 0 0 20 20;" xml:space="preserve">
<path d="M15.08,3.73c1,0,1.93,0.38,2.62,1.07c1.46,1.47,1.43,3.89-0.07,5.4l-7.38,7.4l-7.38-7.4C1.37,8.7,1.34,6.28,2.8,4.81
	c0.69-0.69,1.62-1.08,2.62-1.08c1.04,0,2.01,0.41,2.75,1.15L9.38,6.1l0.87,0.87l0.87-0.87l1.22-1.22
	C13.07,4.14,14.05,3.73,15.08,3.73 M15.08,2.51c-1.3,0-2.62,0.5-3.62,1.51l-1.22,1.22L9.03,4.01c-1-1-2.31-1.51-3.62-1.51
	c-1.27,0-2.53,0.48-3.49,1.44C0,5.88,0.03,9.09,2,11.07l8.25,8.27l8.25-8.27c1.97-1.98,2-5.19,0.07-7.13
	C17.62,2.98,16.35,2.51,15.08,2.51L15.08,2.51z"/>
</svg>
